<svg xmlns="http://www.w3.org/2000/svg" viewBox="0 0 200 200" fill="#9e1014">
  <rect width="200" height="200" fill="#ffffff"/>
  <g stroke="#9e1014" stroke-width="3.4" fill="none" stroke-linecap="round">
    <path d="M96 56 C 88 38, 84 28, 86 17"/>
    <path d="M104 56 C 112 38, 116 28, 114 17"/>
  </g>
  <ellipse cx="60" cy="76" rx="44" ry="17" transform="rotate(-27 60 76)"/>
  <ellipse cx="140" cy="76" rx="44" ry="17" transform="rotate(27 140 76)"/>
  <ellipse cx="100" cy="57" rx="8.5" ry="6.5"/>
  <ellipse cx="100" cy="70" rx="17" ry="12"/>
  <circle cx="100" cy="91" r="15"/>
  <g stroke="#9e1014" stroke-width="3" stroke-linecap="round">
    <line x1="92" y1="95" x2="73" y2="103"/>
    <line x1="90" y1="99" x2="71" y2="115"/>
    <line x1="92" y1="103" x2="80" y2="124"/>
    <line x1="108" y1="95" x2="127" y2="103"/>
    <line x1="110" y1="99" x2="129" y2="115"/>
    <line x1="108" y1="103" x2="120" y2="124"/>
  </g>
  <path d="M100 99 C 96 130, 95 160, 100 183 C 105 160, 104 130, 100 99 Z"/>
</svg>
